<svg id="visual" viewBox="0 0 900 675" width="900" height="675" xmlns="http://www.w3.org/2000/svg" xmlns:xlink="http://www.w3.org/1999/xlink" version="1.1"><rect x="0" y="0" width="900" height="675" fill="#040221"></rect><g transform="translate(410.3633692082586 317.42637807877827)"><path d="M217.1 -281.2C275.9 -256.1 314.4 -185.4 341.7 -109.2C369 -33 385.1 48.7 354.4 106.5C323.7 164.3 246.2 198.2 179.3 240.2C112.5 282.1 56.2 332.1 -2.4 335.3C-60.9 338.5 -121.9 295.1 -163.7 245C-205.5 194.9 -228.1 138.2 -250.1 79.2C-272.1 20.2 -293.5 -41 -291.7 -109.8C-290 -178.5 -265.2 -254.7 -212.7 -281.8C-160.3 -308.9 -80.1 -287 -0.5 -286.3C79.2 -285.6 158.3 -306.2 217.1 -281.2" fill="#161254"></path></g></svg>