<svg xmlns="http://www.w3.org/2000/svg" version="1.1" xmlns:xlink="http://www.w3.org/1999/xlink" xmlns:svgjs="http://svgjs.dev/svgjs" width="2000" height="818" viewBox="0 0 2000 818"><g transform="matrix(1,0,0,1,-1.2121212121213603,0.331725323254318)"><svg viewBox="0 0 396 162" data-background-color="#edbbba" preserveAspectRatio="xMidYMid meet" height="818" width="2000" xmlns="http://www.w3.org/2000/svg" xmlns:xlink="http://www.w3.org/1999/xlink"><g id="tight-bounds" transform="matrix(1,0,0,1,0.24000000000003752,-0.06569621316283758)"><svg viewBox="0 0 395.5199999999999 162.13139242632568" height="162.13139242632568" width="395.5199999999999"><g><svg viewBox="0 0 397.4975999999999 162.9420493884573" height="162.13139242632568" width="395.5199999999999"><g><rect width="397.4975999999999" height="4.990699764715354" x="0" y="89.545787328" fill="#ffffff" opacity="1" stroke-width="0" stroke="transparent" fill-opacity="1" class="rect-o-0" data-fill-palette-color="primary" rx="1%" id="o-0" data-palette-color="#374151"></rect></g><g transform="matrix(1,0,0,1,0.9887999999999693,107.60114616265085)"><svg viewBox="0 0 395.52 55.34090322580644" height="55.34090322580644" width="395.52"><g id="textblocktransform"><svg viewBox="0 0 395.52 55.34090322580644" height="55.34090322580644" width="395.52" id="textblock"><g><svg viewBox="0 0 395.52 55.34090322580644" height="55.34090322580644" width="395.52"><g transform="matrix(1,0,0,1,0,0)"><svg width="395.52" viewBox="1.850000023841858 -34.25 247.989990234375 34.70000076293945" height="55.34090322580644" data-palette-color="#374151"><path d="M3.85-33.9L3.85-33.9Q4.75-33.85 6.2-33.83 7.65-33.8 9.4-33.8 11.15-33.8 12.78-33.8 14.4-33.8 15.65-33.8L15.65-33.8Q17.3-33.8 19.18-33.8 21.05-33.8 22.93-33.83 24.8-33.85 26.4-33.9L26.4-33.9Q26.8-33.3 27.03-32.55 27.25-31.8 27.3-30.85L27.3-30.85Q24.65-25.6 22.15-20.9 19.65-16.2 17.03-11.58 14.4-6.95 11.35-1.9L11.35-1.9 9.65-3.35 15.5-3.35Q17.95-3.35 19.38-3.88 20.8-4.4 21.7-5.83 22.6-7.25 23.25-10.05L23.25-10.05Q26.1-9.85 27.95-8.75L27.95-8.75Q27.7-7.65 27.4-6.08 27.1-4.5 26.93-2.83 26.75-1.15 26.7 0.15L26.7 0.15Q24.6 0.05 22.38 0.03 20.15 0 17.95 0 15.75 0 13.75 0L13.75 0Q10.65 0 7.73 0.03 4.8 0.05 2.7 0.15L2.7 0.15Q2.3-0.45 2.08-1.23 1.85-2 1.85-2.9L1.85-2.9Q4.15-6.85 6.18-10.4 8.2-13.95 10.13-17.35 12.05-20.75 13.95-24.28 15.85-27.8 17.8-31.6L17.8-31.6 20.3-30.5 13.45-30.5Q11.75-30.5 10.63-29.95 9.5-29.4 8.75-27.88 8-26.35 7.35-23.45L7.35-23.45Q6-23.45 4.75-23.6 3.5-23.75 2.65-24.1L2.65-24.1Q3.3-26.3 3.58-29 3.85-31.7 3.85-33.9ZM51.45 0.15L51.45 0.15Q51.45-0.7 51.57-1.7 51.7-2.7 51.9-3.3L51.9-3.3Q53.25-3.4 53.95-3.83 54.65-4.25 54.9-5.35 55.15-6.45 55.15-8.6L55.15-8.6 55.15-25.3Q55.15-27.4 54.9-28.45 54.65-29.5 53.95-29.93 53.25-30.35 51.85-30.5L51.85-30.5Q51.65-31.15 51.55-32.13 51.45-33.1 51.45-33.95L51.45-33.95Q52.3-33.9 53.8-33.88 55.3-33.85 56.9-33.83 58.5-33.8 59.65-33.8L59.65-33.8Q60.85-33.8 62.27-33.83 63.7-33.85 65.1-33.88 66.5-33.9 67.5-33.95L67.5-33.95Q67.5-33.05 67.45-32.2 67.4-31.35 67.1-30.5L67.1-30.5Q65.75-30.35 65.02-29.95 64.3-29.55 64.05-28.48 63.8-27.4 63.8-25.3L63.8-25.3 63.8-8.6Q63.8-6.45 64.07-5.35 64.35-4.25 65.07-3.83 65.8-3.4 67.15-3.3L67.15-3.3Q67.3-2.7 67.4-1.73 67.5-0.75 67.5 0.15L67.5 0.15Q66.3 0.05 64.32 0.03 62.35 0 60.05 0L60.05 0Q57.7 0 55.4 0.03 53.1 0.05 51.45 0.15ZM31.7 0.15L31.7 0.15Q31.7-0.7 31.82-1.7 31.95-2.7 32.1-3.3L32.1-3.3Q33.45-3.4 34.17-3.83 34.9-4.25 35.15-5.35 35.4-6.45 35.4-8.6L35.4-8.6 35.4-25.3Q35.4-27.4 35.15-28.45 34.9-29.5 34.17-29.93 33.45-30.35 32.1-30.5L32.1-30.5Q31.9-31.15 31.8-32.13 31.7-33.1 31.7-33.95L31.7-33.95Q32.55-33.9 34.02-33.88 35.5-33.85 37.12-33.83 38.75-33.8 39.9-33.8L39.9-33.8Q41.05-33.8 42.5-33.83 43.95-33.85 45.35-33.88 46.75-33.9 47.75-33.95L47.75-33.95Q47.75-33.05 47.7-32.2 47.65-31.35 47.35-30.5L47.35-30.5Q46-30.35 45.27-29.95 44.55-29.55 44.3-28.48 44.05-27.4 44.05-25.3L44.05-25.3 44.05-8.6Q44.05-6.45 44.3-5.35 44.55-4.25 45.3-3.83 46.05-3.4 47.35-3.3L47.35-3.3Q47.55-2.7 47.65-1.73 47.75-0.75 47.75 0.15L47.75 0.15Q46.55 0.05 44.55 0.03 42.55 0 40.25 0L40.25 0Q37.95 0 35.62 0.03 33.3 0.05 31.7 0.15ZM43.8-15.25L43.8-15.25 43.8-19.2 55.45-19.2 55.45-15.7Q54.15-15.7 52.6-15.68 51.05-15.65 49.47-15.6 47.9-15.55 46.42-15.48 44.95-15.4 43.8-15.25ZM71.14 0.15L71.14 0.15Q71.14-0.85 71.22-1.78 71.3-2.7 71.5-3.3L71.5-3.3Q72.84-3.4 73.57-3.83 74.3-4.25 74.57-5.38 74.84-6.5 74.84-8.7L74.84-8.7 74.84-25.3Q74.84-27.4 74.57-28.45 74.3-29.5 73.57-29.93 72.84-30.35 71.45-30.5L71.45-30.5Q71.3-31.15 71.22-32.18 71.14-33.2 71.14-33.95L71.14-33.95Q72.25-33.9 73.84-33.88 75.45-33.85 77.27-33.83 79.09-33.8 80.7-33.8L80.7-33.8Q81.84-33.8 83.2-33.85 84.55-33.9 86.15-33.9L86.15-33.9Q88.95-33.9 91.65-33.52 94.34-33.15 96.65-32.15 98.95-31.15 100.7-29.33 102.44-27.5 103.42-24.68 104.4-21.85 104.4-17.75L104.4-17.75Q104.4-13.7 103.4-10.8 102.4-7.9 100.75-5.95 99.09-4 97.09-2.8 95.09-1.6 93-1 90.9-0.4 89.07-0.2 87.25 0 85.95 0L85.95 0Q84.59 0 82.47 0.03 80.34 0.05 78.07 0.08 75.8 0.1 73.89 0.13 72 0.15 71.14 0.15ZM87.55-3.35L87.55-3.35Q88.7-3.35 90.09-3.83 91.5-4.3 92.75-5.68 94-7.05 94.77-9.73 95.55-12.4 95.55-16.9L95.55-16.9Q95.55-20.9 94.75-23.58 93.95-26.25 92.57-27.78 91.2-29.3 89.5-29.95 87.8-30.6 85.95-30.6L85.95-30.6Q85-30.6 84.12-30.38 83.25-30.15 82.84-29.8L82.84-29.8 83.5-31.75 83.5-8.9Q83.5-6.75 83.84-5.53 84.2-4.3 85.07-3.83 85.95-3.35 87.55-3.35ZM125.14-34.1L125.14-34.1 136.44-9Q137.59-6.65 138.24-5.43 138.89-4.2 139.47-3.8 140.04-3.4 140.74-3.3L140.74-3.3Q140.94-2.65 141.04-1.78 141.14-0.9 141.14 0.15L141.14 0.15Q140.24 0.05 138.84 0.03 137.44 0 136.04 0 134.64 0 133.84 0L133.84 0Q133.24 0 132.17 0 131.09 0 129.87 0.03 128.64 0.05 127.54 0.08 126.44 0.1 125.84 0.15L125.84 0.15Q125.84-1.05 125.94-1.85 126.04-2.65 126.24-3.3L126.24-3.3Q127.99-3.65 128.32-4.48 128.64-5.3 127.84-7.15L127.84-7.15 123.34-17.4Q122.19-20.05 121.47-22.33 120.74-24.6 120.24-26.8L120.24-26.8 121.69-26.8Q121.09-24.55 120.37-22.25 119.64-19.95 118.59-17.45L118.59-17.45 114.79-7.55Q114.14-5.95 114.54-4.75 114.94-3.55 116.64-3.3L116.64-3.3Q116.84-2.6 116.94-1.75 117.04-0.9 117.04 0.15L117.04 0.15Q116.49 0.1 115.49 0.08 114.49 0.05 113.42 0.03 112.34 0 111.49 0L111.49 0Q110.24 0 108.92 0.03 107.59 0.05 106.84 0.15L106.84 0.15Q106.84-0.85 106.94-1.65 107.04-2.45 107.29-3.3L107.29-3.3Q108.14-3.45 108.74-3.93 109.34-4.4 109.92-5.45 110.49-6.5 111.29-8.45L111.29-8.45 121.84-33.85Q122.69-34.05 123.42-34.08 124.14-34.1 125.14-34.1ZM114.59-12L126.99-12 127.89-9Q124.54-9 120.92-8.9 117.29-8.8 113.84-8.45L113.84-8.45 114.59-12ZM170.04-12.25L168.79 0.4 146.79-29.05Q146.34-29.8 145.67-30.08 144.99-30.35 143.49-30.5L143.49-30.5Q143.29-31.25 143.19-32.15 143.09-33.05 143.09-33.95L143.09-33.95Q143.74-33.9 144.84-33.88 145.94-33.85 147.09-33.83 148.24-33.8 148.99-33.8L148.99-33.8Q150.19-33.8 151.67-33.83 153.14-33.85 154.09-33.95L154.09-33.95 170.04-12.25ZM143.09 0.15L143.09 0.15Q143.09-0.9 143.17-1.75 143.24-2.6 143.49-3.3L143.49-3.3Q144.99-3.45 145.82-4.05 146.64-4.65 147.02-6.15 147.39-7.65 147.39-10.5L147.39-10.5 147.39-30.7 150.84-30.4 150.84-10.5Q150.84-7.65 151.14-6.15 151.44-4.65 152.27-4.05 153.09-3.45 154.64-3.3L154.64-3.3Q154.84-2.6 154.89-1.68 154.94-0.75 154.94 0.15L154.94 0.15Q154.24 0.1 153.19 0.08 152.14 0.05 151.09 0.03 150.04 0 149.19 0L149.19 0Q148.39 0 147.17 0.03 145.94 0.05 144.84 0.08 143.74 0.1 143.09 0.15ZM168.79 0.4L168.79 0.4 169.29-7.9 169.29-23.35Q169.29-26.2 168.99-27.68 168.69-29.15 167.82-29.75 166.94-30.35 165.24-30.5L165.24-30.5Q165.04-31.35 164.97-32.27 164.89-33.2 164.89-33.95L164.89-33.95Q165.64-33.9 166.74-33.88 167.84-33.85 169.02-33.83 170.19-33.8 170.99-33.8L170.99-33.8Q172.24-33.8 173.74-33.85 175.24-33.9 176.14-33.95L176.14-33.95Q176.14-33.1 176.09-32.25 176.04-31.4 175.84-30.5L175.84-30.5Q174.59-30.4 173.92-29.8 173.24-29.2 172.99-27.73 172.74-26.25 172.74-23.35L172.74-23.35 172.74 0Q171.89 0.25 170.94 0.33 169.99 0.4 168.79 0.4ZM196.59 0.45L196.59 0.45Q191.29 0.45 187.49-1.78 183.69-4 181.61-7.93 179.54-11.85 179.54-17.05L179.54-17.05Q179.54-21 180.81-24.18 182.09-27.35 184.36-29.6 186.64-31.85 189.76-33.05 192.89-34.25 196.59-34.25L196.59-34.25Q201.74-34.25 205.56-32.18 209.39-30.1 211.54-26.35 213.69-22.6 213.69-17.5L213.69-17.5Q213.69-13.55 212.49-10.28 211.29-7 209.04-4.6 206.79-2.2 203.64-0.88 200.49 0.45 196.59 0.45ZM197.29-3.1L197.29-3.1Q199.69-3.1 201.34-4.78 202.99-6.45 203.86-9.43 204.74-12.4 204.74-16.4L204.74-16.4Q204.74-20.4 203.64-23.68 202.54-26.95 200.54-28.9 198.54-30.85 195.84-30.85L195.84-30.85Q193.59-30.85 191.94-29.35 190.29-27.85 189.39-25.05 188.49-22.25 188.49-18.3L188.49-18.3Q188.49-15.25 189.04-12.5 189.59-9.75 190.66-7.63 191.74-5.5 193.39-4.3 195.04-3.1 197.29-3.1ZM230.99 0.4L230.99 0.4Q229.34-4.05 227.61-8.35 225.89-12.65 224.19-16.75 222.49-20.85 220.84-24.6L220.84-24.6Q219.74-26.95 219.09-28.18 218.44-29.4 217.86-29.88 217.29-30.35 216.49-30.5L216.49-30.5Q216.29-31.15 216.19-32.02 216.09-32.9 216.14-33.95L216.14-33.95Q216.74-33.9 217.74-33.88 218.74-33.85 219.89-33.83 221.04-33.8 222.06-33.8 223.09-33.8 223.74-33.8L223.74-33.8Q225.04-33.8 227.26-33.83 229.49-33.85 231.64-33.95L231.64-33.95Q231.59-32.8 231.49-31.95 231.39-31.1 231.24-30.5L231.24-30.5Q229.89-30.3 229.31-29.83 228.74-29.35 228.91-28.33 229.09-27.3 229.89-25.4L229.89-25.4Q231.04-22.6 232.06-19.95 233.09-17.3 234.06-14.45 235.04-11.6 236.04-8.2L236.04-8.2 234.59-8.2Q236.04-11.5 237.21-14.28 238.39-17.05 239.49-19.9 240.59-22.75 241.74-26.1L241.74-26.1Q242.34-27.9 241.99-29.1 241.64-30.3 239.89-30.5L239.89-30.5Q239.69-31.1 239.59-31.95 239.49-32.8 239.49-33.95L239.49-33.95Q240.14-33.9 241.09-33.88 242.04-33.85 243.04-33.83 244.04-33.8 244.84-33.8L244.84-33.8Q246.09-33.8 247.54-33.85 248.99-33.9 249.84-33.95L249.84-33.95Q249.84-32.95 249.71-32.1 249.59-31.25 249.39-30.5L249.39-30.5Q248.04-30.2 247.16-29.05 246.29-27.9 245.24-25.25L245.24-25.25Q242.79-18.95 240.26-12.73 237.74-6.5 234.89 0.05L234.89 0.05Q234.14 0.3 233.06 0.35 231.99 0.4 230.99 0.4Z" opacity="1" transform="matrix(1,0,0,1,0,0)" fill="#ffffff" class="wordmark-text-0" data-fill-palette-color="primary" id="text-0"></path></svg></g></svg></g></svg></g></svg></g><g transform="matrix(1,0,0,1,185.62101686726314,0)"><svg viewBox="0 0 26.255566265473632 76.48112825806452" height="76.48112825806452" width="26.255566265473632"><g><svg xmlns="http://www.w3.org/2000/svg" xmlns:xlink="http://www.w3.org/1999/xlink" version="1.1" x="0" y="0" viewBox="33.2139892578125 5.5279998779296875 30.53400421142578 88.94400024414062" enable-background="new 0 0 100 100" xml:space="preserve" height="76.48112825806452" width="26.255566265473632" class="icon-icon-0" data-fill-palette-color="accent" id="icon-0"><path fill="#ffffff" d="M58.989 23.33c-0.003 0-0.005 0-0.005 0l-3.17-0.212c0.246-0.859 0.366-1.881 0.366-3.083v-6.877c0-4.207-3.423-7.63-7.628-7.63-4.207 0-7.629 3.423-7.629 7.63v6.877c0 1.05 0.031 2.127 0.286 3.116l-3.526 0.176c-2.464 0-4.469 2.295-4.469 5.116v21.715c0 2.823 2.005 5.116 4.469 5.116h1.102l-0.058 34.789c0 2.433 1.979 4.409 4.409 4.409 2.431 0 4.407-1.977 4.404-4.319l1.514-20.124 1.645 20.034c0 2.433 1.979 4.409 4.408 4.409 2.431 0 4.409-1.977 4.409-4.409V60.657l0.022-5.452c2.371-0.333 4.21-2.456 4.21-5.047V28.443C63.749 25.624 61.58 23.33 58.989 23.33z" data-fill-palette-color="accent"></path></svg></g></svg></g><g></g></svg></g><defs></defs></svg><rect width="395.5199999999999" height="162.13139242632568" fill="none" stroke="none" visibility="hidden"></rect></g></svg></g></svg>