<?xml version="1.0" standalone="no"?>
<!DOCTYPE svg PUBLIC "-//W3C//DTD SVG 20010904//EN"
 "http://www.w3.org/TR/2001/REC-SVG-20010904/DTD/svg10.dtd">
<svg version="1.0" xmlns="http://www.w3.org/2000/svg"
 width="696.000000pt" height="696.000000pt" viewBox="0 0 696.000000 696.000000"
 preserveAspectRatio="xMidYMid meet">
<metadata>
Created by potrace 1.14, written by Peter Selinger 2001-2017
</metadata>
<g transform="translate(0.000000,696.000000) scale(0.100000,-0.100000)"
fill="#000000" stroke="none">
<path d="M3749 6122 c-66 -70 -118 -143 -160 -222 -13 -25 -26 -47 -29 -50 -3
-3 -6 -9 -7 -15 -2 -5 -24 -74 -50 -152 -48 -141 -52 -155 -58 -183 -10 -49
-40 -155 -61 -220 -14 -41 -27 -82 -29 -90 -2 -8 -11 -44 -20 -79 -9 -35 -18
-76 -20 -90 -2 -14 -6 -39 -9 -56 -3 -16 -8 -49 -11 -73 -4 -24 -8 -49 -9 -55
-1 -7 -5 -17 -9 -23 -4 -7 -9 -29 -12 -50 -11 -83 -18 -96 -43 -87 -9 3 -14 3
-10 -1 7 -9 -27 -46 -42 -46 -5 0 -10 -3 -10 -8 0 -4 -14 -13 -30 -20 -17 -8
-28 -17 -26 -21 3 -4 -8 -20 -25 -35 -16 -15 -29 -32 -29 -36 0 -22 -86 16
-140 62 -8 7 -75 60 -150 117 -74 57 -142 110 -150 117 -8 8 -44 40 -80 72
-35 31 -79 71 -97 88 -38 35 -93 79 -102 80 -3 0 -19 6 -34 12 -41 17 -88 14
-115 -6 -19 -15 -23 -25 -19 -58 6 -54 28 -133 38 -140 5 -3 9 -14 9 -25 0
-10 4 -19 8 -19 4 0 16 -15 26 -32 11 -18 40 -53 65 -78 52 -50 131 -119 131
-114 0 2 38 -21 85 -52 84 -55 293 -164 412 -216 59 -26 61 -28 56 -58 -3 -25
-2 -30 9 -24 10 6 10 4 -1 -9 -9 -11 -10 -17 -2 -17 13 0 10 -22 -4 -32 -6 -5
-5 -8 3 -8 6 0 12 -12 12 -26 0 -14 4 -23 10 -19 14 9 13 -8 -2 -23 -9 -9 -9
-12 0 -12 7 0 12 -9 12 -20 0 -11 7 -20 16 -20 8 0 12 -4 9 -10 -3 -5 -1 -10
4 -10 6 0 11 -10 11 -22 0 -19 2 -20 11 -8 7 11 9 7 5 -18 -4 -27 -2 -32 11
-28 13 6 14 4 3 -9 -7 -9 -9 -15 -3 -13 6 2 10 -1 9 -5 0 -5 7 -13 17 -18 9
-6 15 -14 12 -20 -4 -5 -1 -9 4 -9 6 0 11 -7 11 -16 0 -8 4 -13 8 -10 5 3 9
-1 9 -9 0 -8 -3 -12 -7 -10 -4 2 -7 -2 -7 -10 0 -9 7 -14 16 -13 18 4 24 -69
7 -91 -9 -12 -7 -13 14 -8 21 5 22 4 10 -6 -8 -7 -16 -18 -18 -26 -3 -12 -1
-12 14 0 12 9 15 9 10 2 -4 -8 -1 -13 9 -13 9 0 13 -4 10 -10 -3 -5 1 -10 9
-10 9 0 16 -9 16 -20 0 -12 7 -20 16 -20 19 0 46 -25 36 -34 -3 -4 2 -4 13 0
15 6 17 4 12 -11 -7 -16 -5 -16 9 -4 16 13 16 12 4 -10 -11 -21 -10 -23 3 -18
11 4 14 2 10 -9 -3 -7 -8 -14 -12 -14 -4 0 -8 -7 -8 -15 0 -8 4 -12 9 -9 13 8
10 -10 -4 -25 -10 -11 -10 -13 0 -7 7 4 12 1 12 -8 0 -9 5 -16 11 -16 6 0 8
-7 5 -16 -3 -8 -2 -12 4 -9 5 3 18 1 27 -5 16 -11 16 -11 1 -6 -10 3 -20 0
-24 -6 -4 -7 -3 -8 5 -4 19 12 24 -23 7 -49 -16 -25 -44 -36 -30 -12 5 8 2 7
-10 -2 -9 -8 -15 -20 -12 -28 3 -8 1 -11 -4 -8 -6 3 -10 1 -10 -5 0 -6 -4 -8
-10 -5 -5 3 -10 -1 -10 -11 0 -11 -6 -15 -19 -11 -14 3 -18 1 -14 -9 3 -8 9
-11 15 -8 5 3 4 -3 -4 -15 -7 -12 -16 -21 -21 -21 -4 0 -5 -4 -2 -10 3 -6 1
-10 -5 -10 -6 0 -8 -5 -4 -12 4 -6 3 -8 -3 -5 -6 4 -17 -1 -24 -10 -11 -14
-12 -15 -1 -9 8 5 2 -10 -13 -33 -15 -22 -32 -41 -37 -41 -5 0 -6 -5 -3 -10 4
-6 2 -9 -2 -8 -5 2 -28 -16 -52 -39 -23 -24 -39 -43 -36 -43 3 0 -6 -12 -20
-27 -14 -15 -25 -31 -25 -36 0 -4 -4 -5 -10 -2 -6 3 -7 -1 -4 -9 4 -9 -5 -26
-23 -42 -15 -15 -19 -21 -8 -13 11 7 7 -1 -10 -18 -39 -41 -57 -63 -50 -63 3
0 -3 -10 -14 -22 -11 -11 -18 -26 -14 -31 3 -6 1 -7 -5 -3 -12 7 -35 -27 -25
-38 3 -3 1 -6 -6 -6 -7 0 -10 -4 -7 -8 3 -5 -6 -16 -19 -26 -14 -10 -22 -22
-19 -27 3 -5 -3 -6 -12 -2 -12 4 -15 3 -10 -5 4 -7 2 -12 -4 -12 -6 0 -8 -5
-4 -12 5 -9 2 -8 -9 1 -15 12 -17 12 -12 -2 4 -8 1 -18 -6 -23 -7 -4 -10 -3
-5 4 10 16 -87 -37 -102 -56 -7 -9 -15 -16 -17 -14 -3 1 -22 -5 -43 -14 -20
-10 -41 -18 -47 -19 -5 0 -9 -6 -8 -13 2 -6 -3 -9 -11 -6 -7 3 -16 -2 -19 -10
-4 -9 -11 -16 -17 -16 -5 0 -19 -9 -30 -20 -12 -12 -25 -18 -30 -15 -6 4 -10
0 -10 -7 0 -8 -9 -14 -21 -15 -11 -1 -27 -8 -36 -15 -8 -6 -22 -13 -31 -14 -8
-2 -19 -9 -23 -16 -5 -7 -9 -10 -9 -5 0 4 -21 -4 -47 -18 -27 -14 -57 -25 -69
-25 -11 0 -24 -3 -28 -7 -3 -4 -12 -8 -19 -9 -7 -1 -32 -7 -57 -15 -25 -7 -51
-12 -57 -10 -7 1 -13 -3 -13 -9 0 -6 -6 -10 -12 -9 -31 4 -79 -2 -75 -8 3 -5
-9 -9 -26 -10 -60 -2 -97 -8 -97 -14 0 -3 -6 -6 -12 -6 -18 0 -127 -13 -163
-19 -16 -3 -48 -7 -70 -9 -22 -2 -40 -5 -40 -6 0 -2 -11 -3 -95 -14 -84 -10
-85 -10 -98 -19 -6 -4 -12 -5 -12 -2 0 2 -15 0 -32 -5 -47 -14 -70 -20 -93
-24 -11 -2 -20 -4 -20 -5 0 -1 -7 -3 -15 -5 -8 -2 -26 -6 -40 -9 -14 -3 -54
-12 -90 -20 -36 -8 -78 -19 -93 -25 -15 -6 -27 -8 -27 -5 0 4 -7 1 -15 -6 -8
-7 -15 -9 -15 -5 0 4 -11 0 -25 -9 -14 -9 -25 -14 -25 -12 0 3 -15 0 -32 -6
-33 -10 -71 -18 -95 -20 -7 -1 -13 -4 -13 -8 0 -7 -11 -9 -65 -12 -19 -1 -35
-6 -35 -11 0 -5 -7 -7 -15 -3 -8 3 -15 1 -15 -4 0 -6 -3 -9 -7 -8 -5 1 -26 -7
-48 -17 -22 -10 -42 -19 -45 -19 -3 -1 -22 -9 -43 -19 -21 -10 -47 -19 -57
-20 -11 -1 -20 -4 -20 -8 0 -4 -15 -10 -32 -14 -18 -4 -35 -8 -38 -9 -3 -1 -9
-4 -15 -7 -5 -4 -18 -5 -27 -4 -10 2 -18 0 -18 -4 0 -4 -12 -8 -27 -9 -15 -1
-30 -7 -34 -13 -3 -6 -9 -10 -13 -10 -27 4 -55 -1 -70 -12 -17 -13 -18 -39
-18 -433 0 -230 1 -426 1 -434 1 -11 13 -15 48 -15 35 0 47 -4 45 -13 -1 -8 2
-11 8 -7 6 3 8 11 4 16 -3 6 6 8 23 6 15 -3 27 -10 25 -16 -1 -7 2 -10 8 -6 6
3 8 10 5 15 -3 5 50 8 122 7 100 -2 127 -5 125 -15 -1 -8 2 -11 8 -7 6 3 8 11
4 16 -3 6 6 8 23 6 15 -3 27 -10 25 -16 -1 -7 2 -10 8 -6 6 3 8 10 5 15 -4 6
48 9 122 7 100 -2 127 -5 125 -15 -1 -8 2 -11 8 -7 6 3 8 11 4 16 -3 6 6 8 23
6 15 -3 27 -10 25 -16 -1 -7 2 -10 8 -6 6 3 8 10 5 15 -4 6 48 9 122 7 100 -2
127 -5 125 -15 -1 -8 2 -11 8 -7 6 3 8 11 4 16 -3 6 6 8 23 6 15 -3 27 -10 25
-16 -1 -7 2 -10 8 -6 6 3 8 10 5 15 -3 5 33 8 82 7 67 -2 87 -5 85 -15 -1 -8
2 -11 8 -7 6 3 8 11 4 17 -8 13 76 8 95 -6 11 -8 13 -8 8 1 -6 9 9 12 60 10
50 -1 67 -5 65 -15 -1 -8 2 -11 8 -7 6 3 8 11 4 16 -3 6 6 8 23 6 15 -3 27
-10 25 -16 -1 -7 2 -10 8 -6 6 3 8 10 5 15 -3 5 33 8 82 7 67 -2 87 -5 85 -15
-1 -8 2 -11 8 -7 6 3 8 11 4 16 -4 7 15 9 52 6 40 -3 58 -8 56 -16 -1 -7 2
-10 8 -6 6 3 8 11 5 16 -9 14 59 11 74 -4 11 -9 12 -9 7 0 -5 9 3 12 31 9 23
-2 37 -8 35 -15 -1 -7 2 -10 8 -6 6 3 8 11 5 16 -4 5 3 9 15 9 12 0 19 -4 15
-9 -3 -5 -1 -13 5 -16 6 -4 9 -1 8 7 -2 7 4 13 12 13 8 0 14 -6 12 -13 -1 -8
2 -11 8 -7 6 3 8 11 5 16 -4 5 3 9 15 9 14 0 19 -4 14 -12 -6 -10 -3 -9 8 0
21 17 74 12 70 -6 -1 -8 2 -11 8 -7 6 3 8 11 4 17 -8 13 76 8 95 -6 11 -8 13
-8 8 1 -6 9 9 12 60 10 50 -1 67 -5 65 -15 -1 -8 2 -11 8 -7 6 3 8 11 4 16 -3
6 6 8 23 6 15 -3 27 -10 25 -16 -1 -7 2 -10 8 -6 6 3 8 11 5 16 -4 5 29 8 82
7 67 -2 87 -6 85 -16 -1 -8 2 -11 8 -7 6 3 8 11 4 16 -4 7 15 9 52 6 40 -3 58
-8 56 -16 -1 -7 2 -10 8 -6 6 3 8 11 4 16 -3 6 24 8 73 6 55 -3 77 -7 75 -16
-1 -7 2 -10 8 -6 6 3 8 11 5 16 -4 5 3 9 15 9 12 0 19 -4 15 -9 -3 -5 -1 -13
5 -16 6 -4 9 -1 8 7 -2 7 4 13 12 13 8 0 14 -6 12 -13 -1 -8 2 -11 8 -7 6 3 8
11 5 16 -4 5 3 9 15 9 14 0 19 -4 14 -12 -6 -10 -3 -9 8 0 21 17 74 12 70 -6
-1 -8 2 -11 8 -7 6 3 8 11 4 17 -8 13 76 8 95 -6 11 -8 13 -8 8 1 -6 9 9 12
60 10 50 -1 67 -5 65 -15 -1 -8 2 -11 8 -7 6 3 8 11 4 16 -3 6 6 8 23 6 15 -3
27 -10 25 -16 -1 -7 2 -10 8 -6 6 3 8 10 5 15 -3 5 33 8 82 7 67 -2 87 -5 85
-15 -1 -8 2 -11 8 -7 6 3 8 11 4 17 -8 13 76 8 95 -6 11 -8 13 -8 8 1 -6 9 9
12 60 10 50 -1 67 -5 65 -15 -1 -8 2 -11 8 -7 6 3 8 11 4 16 -3 6 6 8 23 6 15
-3 27 -10 25 -16 -1 -7 2 -10 8 -6 6 3 8 10 5 15 -3 5 50 8 122 7 100 -2 127
-5 125 -15 -1 -8 2 -11 8 -7 6 3 8 11 4 16 -3 6 6 8 23 6 15 -3 27 -10 25 -16
-1 -7 2 -10 8 -6 6 3 8 10 5 15 -3 5 50 8 122 7 100 -2 127 -5 125 -15 -1 -8
2 -11 8 -7 6 3 8 11 4 16 -3 6 6 8 23 6 15 -3 27 -10 25 -16 -1 -7 2 -10 8 -6
6 3 8 11 4 16 -3 6 42 9 123 7 100 -2 127 -6 125 -16 -1 -8 2 -11 8 -7 6 3 8
11 4 16 -3 6 6 8 23 6 15 -3 27 -10 25 -16 -1 -7 2 -10 8 -6 6 3 8 10 5 15 -4
6 48 9 122 7 100 -2 127 -5 125 -15 -1 -8 2 -11 8 -7 6 3 8 11 4 16 -3 6 6 8
23 6 15 -3 27 -10 25 -16 -1 -7 2 -10 8 -6 6 3 8 10 5 15 -3 5 50 8 122 7 100
-2 127 -5 125 -15 -1 -8 2 -11 8 -7 6 3 8 11 4 16 -3 6 6 8 23 6 15 -3 27 -10
25 -16 -1 -7 2 -10 8 -6 6 3 8 10 5 15 -3 6 29 9 75 9 44 0 78 -4 75 -9 -3 -5
0 -12 6 -16 7 -4 9 -3 5 4 -3 6 6 20 21 32 24 19 25 22 6 16 -19 -6 -21 -4
-17 19 3 18 1 24 -7 20 -8 -6 -8 -2 0 13 8 15 8 23 -1 28 -7 5 -8 3 -3 -6 5
-9 4 -11 -4 -6 -8 5 -9 12 -2 19 14 17 14 29 2 37 -6 3 -13 27 -14 53 -2 26
-6 50 -10 53 -3 4 -2 15 4 25 7 14 6 17 -4 13 -9 -3 -13 2 -12 18 1 13 -2 25
-6 28 -5 3 -9 20 -11 38 -1 18 -5 32 -9 32 -4 0 -7 10 -7 23 -2 58 -5 77 -16
77 -6 0 -4 5 4 10 12 7 12 10 1 10 -7 0 -11 6 -8 15 4 8 2 17 -3 20 -5 3 -7
14 -5 25 2 11 -1 20 -7 20 -6 0 -8 3 -5 7 4 3 2 12 -4 20 -9 9 -8 13 0 13 8 0
8 5 -1 19 -9 15 -9 23 1 34 9 12 9 17 0 23 -8 5 -9 3 -4 -6 5 -8 4 -11 -1 -7
-13 8 -16 64 -4 72 6 4 4 15 -5 29 -9 13 -12 31 -9 41 5 13 4 16 -4 11 -8 -4
-12 0 -12 11 0 11 -6 25 -12 32 -10 11 -10 13 0 7 6 -4 12 -2 12 3 0 6 -8 11
-17 12 -15 0 -15 2 2 9 14 6 15 9 5 9 -11 1 -16 11 -15 34 0 17 -4 38 -9 45
-7 9 -4 11 10 5 18 -7 18 -6 2 19 -13 19 -15 29 -6 34 7 4 8 3 4 -4 -4 -7 -2
-12 3 -12 15 0 14 11 -5 32 -15 16 -15 18 0 24 9 3 13 10 10 15 -3 5 -10 7
-15 3 -5 -3 -8 7 -7 23 1 16 -2 35 -7 42 -5 9 -4 12 3 7 6 -3 13 -2 17 4 3 5
0 10 -7 10 -9 0 -9 3 2 10 12 8 12 10 1 10 -8 0 -11 7 -8 20 3 10 2 19 -2 18
-19 -2 -22 4 -10 19 10 11 10 14 2 9 -7 -4 -13 -4 -14 1 -3 31 -10 48 -23 55
-9 5 -16 16 -16 23 0 8 -7 15 -16 15 -8 0 -12 5 -9 10 3 5 1 10 -6 10 -7 0
-10 3 -6 6 3 3 -5 16 -18 28 -19 17 -22 25 -13 34 9 9 7 12 -8 13 -10 0 -13 3
-7 6 10 3 10 8 -1 19 -8 8 -20 14 -26 14 -6 0 -8 5 -5 10 3 6 1 10 -5 10 -6 0
-8 5 -5 10 3 6 -1 10 -10 10 -8 0 -20 11 -25 24 -5 13 -17 29 -27 35 -16 9
-16 13 -5 31 7 12 11 25 8 28 -3 3 -6 0 -6 -7 0 -9 -5 -9 -21 0 -17 9 -20 8
-14 -2 5 -8 4 -10 -3 -5 -7 4 -12 12 -12 18 0 6 -8 20 -17 31 -10 12 -12 17
-4 12 9 -5 12 -3 9 6 -3 8 -11 13 -17 11 -7 -1 -9 2 -5 9 5 9 13 5 26 -11 14
-17 21 -20 31 -11 8 6 16 9 19 6 3 -3 11 3 19 12 13 16 12 17 -3 4 -10 -7 -18
-10 -18 -6 0 4 -6 2 -13 -4 -8 -6 -17 -8 -20 -4 -11 10 -8 43 3 43 6 0 10 7
10 15 0 8 5 15 10 15 6 0 10 -6 10 -12 0 -10 3 -9 9 1 5 7 14 10 21 6 8 -5 8
-1 -1 14 -10 14 -15 17 -21 8 -5 -7 -8 -8 -8 -1 0 5 9 20 20 32 12 12 16 22
10 22 -5 0 -10 4 -10 10 0 5 7 6 17 3 11 -4 14 -3 9 5 -9 15 18 55 30 44 4 -4
2 1 -5 11 -11 14 -11 20 0 34 12 15 12 16 -1 8 -8 -4 -4 4 10 20 14 16 20 25
13 21 -6 -3 -14 -2 -18 4 -3 5 -1 10 6 10 7 0 9 3 6 7 -4 3 -1 13 6 21 7 10 8
13 1 9 -8 -4 -11 2 -10 18 0 14 5 25 9 25 5 0 1 7 -7 16 -19 18 -21 38 -3 28
8 -5 8 -2 -2 9 -12 15 -11 17 5 17 16 1 17 2 3 10 -11 6 -15 21 -13 50 1 22
-2 40 -8 40 -5 0 -6 6 -1 13 13 21 13 47 0 47 -8 0 -7 4 3 10 8 5 11 10 6 10
-5 0 -1 10 10 22 15 19 16 20 2 9 -11 -8 -18 -9 -18 -3 0 6 5 14 11 18 8 4 7
9 -2 15 -12 8 -12 10 0 18 11 7 11 9 0 14 -11 4 -11 6 -1 6 7 1 10 6 7 11 -3
6 -1 10 4 10 6 0 11 5 11 11 0 5 -4 8 -8 5 -4 -2 -8 4 -8 15 0 10 4 19 8 19 4
0 8 12 8 26 0 14 4 23 8 20 11 -6 9 25 -3 43 -5 10 -4 12 3 7 8 -5 12 1 12 16
0 17 3 20 9 9 7 -10 9 -7 8 12 -1 15 -5 27 -8 27 -3 0 -6 7 -6 15 0 8 4 12 9
9 8 -5 12 11 9 30 -1 5 5 4 13 -3 13 -11 15 -9 11 11 -4 22 -4 22 10 4 17 -23
19 -17 5 19 -8 20 -7 24 3 18 18 -11 36 -12 43 -2 3 5 2 9 -3 8 -19 -3 -33 2
-33 12 0 5 6 7 13 4 6 -4 1 3 -13 16 -22 19 -23 21 -4 15 16 -5 20 -2 19 12 0
9 -5 23 -9 31 -7 11 -4 11 15 0 23 -12 23 -11 9 6 -13 17 -13 18 1 13 9 -4 16
-1 16 8 0 7 -4 11 -9 8 -4 -3 -8 -1 -8 5 0 5 5 13 10 16 6 3 10 11 10 16 0 6
-5 7 -11 3 -8 -4 -8 -1 -1 13 10 18 61 35 147 48 63 9 123 32 279 104 59 28
112 51 117 51 5 0 9 5 9 10 0 6 5 10 11 10 5 0 30 15 53 32 24 18 54 40 67 48
59 39 169 155 192 203 44 91 54 123 58 177 7 112 -23 132 -144 99 -35 -9 -193
-85 -207 -99 -6 -6 -101 -64 -150 -93 -98 -56 -198 -99 -210 -92 -6 3 -10 1
-10 -4 0 -6 -5 -11 -11 -11 -5 0 -7 6 -3 13 4 6 -2 3 -14 -7 -12 -11 -22 -16
-22 -11 0 4 -6 3 -13 -3 -10 -8 -13 -6 -13 9 0 10 4 19 9 19 4 0 5 5 1 12 -4
7 -3 8 5 4 6 -4 9 -11 6 -16 -3 -5 -1 -11 4 -14 5 -4 7 8 4 26 -4 32 -4 32 12
13 16 -20 16 -20 6 1 -8 16 -17 20 -35 17 -16 -3 -23 -10 -19 -19 3 -8 0 -14
-7 -14 -6 0 -8 5 -5 10 3 6 1 10 -5 10 -6 0 -8 5 -4 12 4 6 3 8 -3 5 -12 -8
-39 20 -30 30 4 3 2 12 -4 19 -7 8 -6 14 2 20 7 4 9 3 6 -3 -4 -6 0 -13 8 -17
8 -3 15 -10 15 -16 0 -6 -4 -8 -10 -5 -5 3 -10 1 -10 -5 0 -7 6 -10 14 -7 7 3
20 0 27 -6 11 -10 11 -9 0 5 -7 9 -10 22 -6 28 4 6 1 9 -6 8 -7 -2 -15 5 -17
14 -2 13 1 16 11 12 18 -7 32 12 16 22 -8 4 -9 3 -5 -4 10 -17 -9 -15 -24 3
-7 8 -17 12 -24 8 -8 -5 -8 -3 0 8 6 8 10 24 8 37 -3 16 0 21 8 17 7 -4 5 0
-4 8 -14 11 -15 16 -5 27 10 12 9 12 -4 2 -9 -6 -19 -9 -23 -5 -4 4 -5 -1 -1
-12 3 -11 -1 -8 -8 8 -7 15 -17 24 -21 20 -4 -5 -6 1 -4 12 2 13 -2 19 -11 17
-12 -3 -12 0 -1 12 9 12 9 16 1 16 -7 0 -10 4 -7 8 10 16 -12 34 -45 37 -28 2
-37 -1 -46 -21 -6 -13 -7 -21 -1 -18 5 3 4 -3 -3 -14 -7 -12 -17 -19 -21 -16
-4 3 -5 -1 -2 -9 6 -15 -47 -77 -66 -77 -5 0 -10 -7 -10 -16 0 -8 -4 -13 -9
-9 -6 3 -8 14 -6 25 2 11 1 20 -3 20 -4 0 -7 30 -8 68 -1 109 -12 224 -30 325
-3 17 -7 43 -9 57 -2 14 -4 25 -5 25 -1 0 -3 27 -5 60 -2 33 -6 69 -8 81 -5
18 -14 113 -23 219 -7 94 -57 334 -72 344 -7 5 -41 75 -86 173 -9 20 -16 41
-16 48 0 6 -11 36 -25 65 -36 80 -65 90 -175 60 -14 -4 -29 -7 -35 -7 -22 0
-141 13 -155 17 -13 3 -65 11 -150 20 -14 2 -43 6 -65 10 -22 3 -67 10 -100
16 -33 5 -177 9 -321 9 l-261 0 -64 -68z m1921 -1722 c0 -5 -4 -10 -10 -10 -5
0 -10 5 -10 10 0 6 5 10 10 10 6 0 10 -4 10 -10z m5 -2760 c3 -5 1 -10 -4 -10
-6 0 -11 5 -11 10 0 6 2 10 4 10 3 0 8 -4 11 -10z"/>
<path d="M5668 4533 c7 -3 16 -2 19 1 4 3 -2 6 -13 5 -11 0 -14 -3 -6 -6z"/>
<path d="M5519 3593 c-13 -16 -12 -17 4 -4 9 7 17 15 17 17 0 8 -8 3 -21 -13z"/>
<path d="M5390 2640 c0 -5 5 -10 10 -10 6 0 10 5 10 10 0 6 -4 10 -10 10 -5 0
-10 -4 -10 -10z"/>
<path d="M5690 1519 c0 -5 5 -7 10 -4 6 3 10 8 10 11 0 2 -4 4 -10 4 -5 0 -10
-5 -10 -11z"/>
<path d="M5826 893 c-6 -14 -5 -15 5 -6 7 7 10 15 7 18 -3 3 -9 -2 -12 -12z"/>
<path d="M226 818 c3 -5 10 -6 15 -3 13 9 11 12 -6 12 -8 0 -12 -4 -9 -9z"/>
<path d="M290 819 c0 -5 5 -7 10 -4 6 3 10 8 10 11 0 2 -4 4 -10 4 -5 0 -10
-5 -10 -11z"/>
<path d="M546 818 c3 -5 10 -6 15 -3 13 9 11 12 -6 12 -8 0 -12 -4 -9 -9z"/>
<path d="M1186 818 c3 -5 10 -6 15 -3 13 9 11 12 -6 12 -8 0 -12 -4 -9 -9z"/>
<path d="M1666 818 c3 -5 10 -6 15 -3 13 9 11 12 -6 12 -8 0 -12 -4 -9 -9z"/>
<path d="M3586 818 c3 -5 10 -6 15 -3 13 9 11 12 -6 12 -8 0 -12 -4 -9 -9z"/>
<path d="M4066 818 c3 -5 10 -6 15 -3 13 9 11 12 -6 12 -8 0 -12 -4 -9 -9z"/>
<path d="M4386 818 c3 -5 10 -6 15 -3 13 9 11 12 -6 12 -8 0 -12 -4 -9 -9z"/>
<path d="M5346 818 c3 -5 10 -6 15 -3 13 9 11 12 -6 12 -8 0 -12 -4 -9 -9z"/>
<path d="M5410 819 c0 -5 5 -7 10 -4 6 3 10 8 10 11 0 2 -4 4 -10 4 -5 0 -10
-5 -10 -11z"/>
<path d="M5666 818 c3 -5 10 -6 15 -3 13 9 11 12 -6 12 -8 0 -12 -4 -9 -9z"/>
</g>
</svg>
